<svg id="图层_1" data-name="图层 1" xmlns="http://www.w3.org/2000/svg" viewBox="0 0 232.38 35.7"><defs><style>.cls-1{fill:#ffb787;}.cls-2{fill:#ffbf92;}.cls-3{fill:#fff;}</style></defs><title>logo</title><path class="cls-1" d="M6.3,5.8a.78.78,0,0,0,0,1,15.93,15.93,0,0,0,1.34,1.5,14.84,14.84,0,0,0,3.64,2.65,14.42,14.42,0,0,0,2.4,1,14.46,14.46,0,0,0,4.33.66,14.68,14.68,0,0,0,10.36-4.3L28.64,8a13.86,13.86,0,0,0,1.07-1.23.8.8,0,0,0,0-1l-.1-.12a14.68,14.68,0,0,0-22-1.37A15.93,15.93,0,0,0,6.3,5.8m9.37,4a12.15,12.15,0,0,1,7.89-2.92,11.88,11.88,0,0,1,2.33.23A12.12,12.12,0,0,1,18,10a12.06,12.06,0,0,1-2.34-.23M9.85,6.88a.79.79,0,0,1,0-1.18A12.08,12.08,0,0,1,24.4,4.37l-.84,0A14.72,14.72,0,0,0,13.32,8.52a.79.79,0,0,1-.92.13A12.11,12.11,0,0,1,9.85,6.88" transform="translate(-3.16)"/><path class="cls-2" d="M17.28,24.15a16.86,16.86,0,0,0-.35-2.58,15.52,15.52,0,0,0-10-11.46,11.22,11.22,0,0,0-1.13-.33l-.71-.16h0a.8.8,0,0,0-.91.51c-.06.15-.11.3-.16.45q-.23.67-.39,1.38l0,.13a16.23,16.23,0,0,0-.4,3.58,15.71,15.71,0,0,0,9.61,14.61.8.8,0,0,1,.41,1.11,13.33,13.33,0,0,1-1.12,1.75,12.58,12.58,0,0,1-1.46,1.63.47.47,0,0,0,.26.81,14,14,0,0,0,1.84.12h.2a.83.83,0,0,0,.59-.28,15.58,15.58,0,0,0,1.77-2.54,16.48,16.48,0,0,0,.82-1.69,15.68,15.68,0,0,0,.79-2.46A16.26,16.26,0,0,0,17.3,25c0-.29,0-.57,0-.86m-3.14-3.23A12.9,12.9,0,0,1,6.33,12.6a12.93,12.93,0,0,1,7.81,8.32m-.65,6.91A13.09,13.09,0,0,1,5.81,17.36a15.17,15.17,0,0,0,8.36,6.24.77.77,0,0,1,.57.72c0,.23,0,.46,0,.69a13.48,13.48,0,0,1-.18,2.22.79.79,0,0,1-1.09.6" transform="translate(-3.16)"/><path class="cls-2" d="M18.86,25a16.26,16.26,0,0,0,.43,3.72,16.81,16.81,0,0,0,.79,2.46,16.54,16.54,0,0,0,.83,1.69,15.58,15.58,0,0,0,1.77,2.54.81.81,0,0,0,.58.28h.21a13.83,13.83,0,0,0,1.83-.12.47.47,0,0,0,.26-.81,12.58,12.58,0,0,1-1.46-1.63A13.33,13.33,0,0,1,23,31.39a.8.8,0,0,1,.41-1.11A15.7,15.7,0,0,0,33,15.67a16.23,16.23,0,0,0-.4-3.58l0-.13q-.16-.71-.39-1.38c0-.15-.1-.3-.16-.46a.79.79,0,0,0-.9-.5h0l-.72.16a11,11,0,0,0-1.12.33,15.54,15.54,0,0,0-10,11.46,15.7,15.7,0,0,0-.34,2.58c0,.29,0,.57,0,.86m11-12.41A12.93,12.93,0,0,1,22,20.92a12.9,12.9,0,0,1,7.81-8.32M21.4,25c0-.23,0-.46,0-.69A.79.79,0,0,1,22,23.6a15.21,15.21,0,0,0,8.36-6.24,13.1,13.1,0,0,1-7.69,10.47.79.79,0,0,1-1.09-.6A13.48,13.48,0,0,1,21.4,25" transform="translate(-3.16)"/><path class="cls-3" d="M55.46,21.35c-.2,1.09-.39,2.16-.55,3.24s-.33,2.24-.49,3.51h-.93a29.4,29.4,0,0,1-6.68-.68,14.68,14.68,0,0,1-5.18-2.22,10.15,10.15,0,0,1-3-3.1,7.85,7.85,0,0,1-1-4,7.79,7.79,0,0,1,1-4,9.64,9.64,0,0,1,3-3.11A15.43,15.43,0,0,1,47,8.7,29.15,29.15,0,0,1,53.49,8h.74l.39,3c.16,1.21.37,2.48.62,3.79h-.89c-.31,0-1,0-2,.09a18,18,0,0,0-2.64.35,8.44,8.44,0,0,0-2.74,1,2.07,2.07,0,0,0,0,3.61,8.17,8.17,0,0,0,2.74,1.05,16.85,16.85,0,0,0,2.62.34c1,.07,1.71.1,2,.1h1.11Z" transform="translate(-3.16)"/><path class="cls-3" d="M73.49,20.81v7L70.88,28c-1.51.09-2.87.13-4.08.13-.84,0-2-.07-3.32-.2a12.28,12.28,0,0,1-3.33-.7,5.79,5.79,0,0,1-2.39-1.62,3.55,3.55,0,0,1-.8-2.26A3.76,3.76,0,0,1,57.72,21a5.7,5.7,0,0,1,2.74-1.63,14.1,14.1,0,0,1,3.27-.66c1.23-.11,2-.17,2.36-.18a.72.72,0,0,0-.22-.55,2.39,2.39,0,0,0-1.06-.36,9,9,0,0,0-1.12-.12c-.41,0-.91,0-1.5,0-.79,0-1.46,0-2,0l-1.5,0,.58-5h2.89a23.42,23.42,0,0,1,5.49.51,8.69,8.69,0,0,1,3.47,1.71A5.9,5.9,0,0,1,73,17.25,10.46,10.46,0,0,1,73.49,20.81Zm-6.88,1.6V20.82a4.16,4.16,0,0,0-.55.06,3.38,3.38,0,0,0-.92.32,2.26,2.26,0,0,0-.57.5,1.33,1.33,0,0,0-.29.85,1.31,1.31,0,0,0,.28.91,1.93,1.93,0,0,0,.66.49,2.08,2.08,0,0,0,.53.16,3.91,3.91,0,0,0,.73.06h.13V22.41Z" transform="translate(-3.16)"/><path class="cls-3" d="M90.15,23a3.35,3.35,0,0,1-.84,2.31,6.53,6.53,0,0,1-2.1,1.55,10.61,10.61,0,0,1-3.31.89,30.47,30.47,0,0,1-3.76.28H76.07l-.69-4.92H79A9.25,9.25,0,0,0,80,23.1a2.26,2.26,0,0,0,1-.24.42.42,0,0,0,.13-.29q0-.18-.27-.33c-.18-.1-.5-.26-1-.46l-.86-.4a10.73,10.73,0,0,1-1-.56,3.87,3.87,0,0,1-1.53-1.5A3.93,3.93,0,0,1,76,17.49a3.52,3.52,0,0,1,.69-2.12,5.79,5.79,0,0,1,2.37-1.69,11.94,11.94,0,0,1,3.21-.87,32.3,32.3,0,0,1,3.57-.32l2.13,0h1.29L90,17.4H88q-.57,0-1,0c-.33,0-.64,0-.94.06a3.5,3.5,0,0,0-.73.14c-.19.07-.28.18-.28.33s.1.27.3.38l.91.43,1,.45c.34.16.67.33,1,.52a4.21,4.21,0,0,1,1.48,1.38A3.56,3.56,0,0,1,90.15,23Z" transform="translate(-3.16)"/><path class="cls-3" d="M110.16,27.85h-7.37c0-.55,0-1.57,0-3.06s0-2.54,0-3.15,0-.77,0-.93,0-.48,0-.94a2.81,2.81,0,0,0-.25-1.43.85.85,0,0,0-.77-.38,3.67,3.67,0,0,0-1.07.17q-.54.16-.81.27l0,9.45H92.54c0-1.13,0-2.39,0-3.76s0-3.87,0-7.48c0-1.58,0-3.25,0-5s0-3.51,0-5.27h7.37l0,7.29,0,0c.27-.12,1-.38,2.24-.77a11.18,11.18,0,0,1,3.26-.58,4.54,4.54,0,0,1,3.49,1.36,5,5,0,0,1,1.26,3.56c0,1.13,0,2,0,2.66s0,1.22,0,1.73c0,.93,0,2,0,3.3S110.16,27.17,110.16,27.85Z" transform="translate(-3.16)"/><path class="cls-3" d="M126.64,22.44l-.79,5.64H125a22,22,0,0,1-5.49-.57,13.53,13.53,0,0,1-3.84-1.67,7,7,0,0,1-2.29-2.38,6.21,6.21,0,0,1-.81-3.15,6,6,0,0,1,.83-3.23,6.9,6.9,0,0,1,2.29-2.27,12.21,12.21,0,0,1,4-1.71,22,22,0,0,1,5.34-.57h.73l.76,5.65h-.67l-1.3.05a10.53,10.53,0,0,0-1.86.25,5.22,5.22,0,0,0-1.76.67,1.34,1.34,0,0,0,0,2.31,5.38,5.38,0,0,0,1.78.68,11.34,11.34,0,0,0,1.82.23c.73.05,1.17.07,1.33.07h.8Z" transform="translate(-3.16)"/><path class="cls-3" d="M146.06,20.31a7.85,7.85,0,0,1-.69,3.26,7.69,7.69,0,0,1-2.15,2.77,7.82,7.82,0,0,1-2.81,1.49,12,12,0,0,1-6.74,0,7.71,7.71,0,0,1-4.93-4.17,8,8,0,0,1-.1-6.56,8.07,8.07,0,0,1,2-2.61,8.2,8.2,0,0,1,2.85-1.62,10.88,10.88,0,0,1,3.55-.55,11.9,11.9,0,0,1,3.46.49,8.29,8.29,0,0,1,2.88,1.58,7.48,7.48,0,0,1,2.72,5.93Zm-7.26,0a5.69,5.69,0,0,0-.15-1.26,2.34,2.34,0,0,0-.54-1.09,1.14,1.14,0,0,0-.48-.31,1.85,1.85,0,0,0-1.23,0,1.52,1.52,0,0,0-.53.41,2.35,2.35,0,0,0-.48,1,5.74,5.74,0,0,0-.13,1.18,5.54,5.54,0,0,0,.13,1.26,2.34,2.34,0,0,0,.51,1,1.17,1.17,0,0,0,.52.37,1.66,1.66,0,0,0,.62.11,1.61,1.61,0,0,0,.62-.13,1.34,1.34,0,0,0,.5-.34,2.41,2.41,0,0,0,.47-1A5,5,0,0,0,138.8,20.34Z" transform="translate(-3.16)"/><path class="cls-3" d="M174.17,13.91c-1.33,3.45-2.41,6.35-3.23,8.72s-1.4,4.12-1.73,5.22h-6.76c-.18-.61-.4-1.35-.65-2.22s-.66-2.19-1.2-3.94h-.14c-.49,1.56-.88,2.81-1.15,3.73s-.53,1.73-.74,2.43H151.8q-.48-1.55-1.67-5.05t-3.25-8.89l7.54-1.6,1.79,7h.15l1.72-6.47h4.85l1.79,6.47h.14l1.73-7Z" transform="translate(-3.16)"/><path class="cls-3" d="M192.26,27.85l-1.6,0h-1.74a40.79,40.79,0,0,1-5.88-.34,12.1,12.1,0,0,1-3.69-1,8.1,8.1,0,0,1-3.26-2.69A6.75,6.75,0,0,1,175,20a6.13,6.13,0,0,1,1.18-3.61,7.63,7.63,0,0,1,3.71-2.6,14.85,14.85,0,0,1,2.46-.69,25.88,25.88,0,0,1,2.57-.34l0-6.37h7.37c0,.39,0,1.48,0,3.27s0,4.2,0,7.24c0,2.87,0,5.18,0,6.91S192.26,26.85,192.26,27.85ZM185.33,20V18l-.83,0a2.39,2.39,0,0,0-1,.34,2.09,2.09,0,0,0-.87.85,2.69,2.69,0,0,0-.32,1.3,3.71,3.71,0,0,0,.2,1.24,2,2,0,0,0,.83,1,2.65,2.65,0,0,0,.89.4,3.51,3.51,0,0,0,.95.13h.13V20Z" transform="translate(-3.16)"/><path class="cls-3" d="M211.82,21h-9.6a1.44,1.44,0,0,0,.58,1.09,4.13,4.13,0,0,0,1.82.78,10.61,10.61,0,0,0,1.8.24c.58,0,1.11,0,1.6,0h1.75l1.2,0L210.29,28l-1.38.09c-.55,0-1.15,0-1.82,0a23.81,23.81,0,0,1-5.11-.5,11.05,11.05,0,0,1-4.08-1.75,7.34,7.34,0,0,1-2.25-2.54,6.69,6.69,0,0,1-.78-3.19,7.86,7.86,0,0,1,.56-3.07,8.1,8.1,0,0,1,4.83-4.17,10.45,10.45,0,0,1,3.32-.55,10.87,10.87,0,0,1,3.35.49,7,7,0,0,1,2.55,1.46,6.55,6.55,0,0,1,1.82,2.87A12.67,12.67,0,0,1,211.82,21Zm-6.76-2.4a2.66,2.66,0,0,0-.42-1.54,1.47,1.47,0,0,0-1.31-.62A1.59,1.59,0,0,0,202,17a2.53,2.53,0,0,0-.52,1.58Z" transform="translate(-3.16)"/><path class="cls-3" d="M226.61,11.21h-.85c-.4,0-.8,0-1.2,0a10.68,10.68,0,0,0-1.09.12,2.65,2.65,0,0,0-1,.42.82.82,0,0,0-.47.67v.25h4.43v5.13h-4c0,1.12,0,2.82,0,5.11s0,3.92,0,4.9H215c0-1.15,0-2.84,0-5.06s0-3.87,0-4.95h-2.47V12.71h2.59v-.35a5.67,5.67,0,0,1,.54-2.46,5.21,5.21,0,0,1,1.83-2,8.31,8.31,0,0,1,2.58-1.14,15.58,15.58,0,0,1,4-.42H226Z" transform="translate(-3.16)"/><path class="cls-3" d="M235.55,11h-7.37V6.34h7.37Zm0,16.81h-7.37c0-.88,0-1.92,0-3.12s0-2.59,0-4.16c0-1.28,0-2.55,0-3.82s0-2.61,0-4h7.37c0,1.37,0,2.52,0,3.45s0,2.4,0,4.38c0,2.17,0,3.68,0,4.56S235.55,26.89,235.55,27.85Z" transform="translate(-3.16)"/></svg>