<svg id="图层_1" data-name="图层 1" xmlns="http://www.w3.org/2000/svg" viewBox="0 0 36.9 43"><defs><style>.cls-1{fill:#ffb787;}.cls-2{fill:#231815;}.cls-3{fill:#ffbf92;}.cls-4{fill:none;}</style></defs><path class="cls-1" d="M12.8,13a.91.91,0,0,0,0,1.2c.5.6,1,1.2,1.6,1.8a19.83,19.83,0,0,0,4.4,3.2,14.76,14.76,0,0,0,2.9,1.2,18.21,18.21,0,0,0,5.2.8A17.72,17.72,0,0,0,39.4,16l.3-.3A17.38,17.38,0,0,0,41,14.2.91.91,0,0,0,41,13l-.1-.2c-.5-.6-1-1.1-1.5-1.6a17.68,17.68,0,0,0-25,0h0c-.6.6-1.1,1.2-1.6,1.8m11.3,4.8a14.3,14.3,0,0,1,9.5-3.5,13.33,13.33,0,0,1,2.8.3,14.3,14.3,0,0,1-9.5,3.5,12.65,12.65,0,0,1-2.8-.3m-7-3.5a1,1,0,0,1,0-1.4h0a14.55,14.55,0,0,1,17.5-1.6h-1a17.66,17.66,0,0,0-12.3,5,.91.91,0,0,1-1.1.2,11.59,11.59,0,0,1-3.1-2.2" transform="translate(-9 -6)"/><path class="cls-2" d="M42.7,13.2h0" transform="translate(-9 -6)"/><path class="cls-3" d="M26,35.1c-.1-1-.2-2.1-.4-3.1A18.61,18.61,0,0,0,13.5,18.2c-.4-.1-.9-.3-1.4-.4-.3-.1-.6-.1-.9-.2h0a1,1,0,0,0-1.1.6c-.1.2-.1.4-.2.5-.2.5-.3,1.1-.5,1.6v.2A32.7,32.7,0,0,0,9,24.9,18.84,18.84,0,0,0,20.6,42.5a1,1,0,0,1,.5,1.3h0a12.78,12.78,0,0,1-1.4,2.1,11.23,11.23,0,0,1-1.8,2,.61.61,0,0,0-.1.8.52.52,0,0,0,.4.2,16.2,16.2,0,0,0,2.2.1h.2a.91.91,0,0,0,.7-.3,16.1,16.1,0,0,0,2.1-3,12.44,12.44,0,0,0,1-2c.4-1,.7-2,1-3a17.53,17.53,0,0,0,.4-4.6,1.8,1.8,0,0,0,.2-1m-3.8-3.9a15.59,15.59,0,0,1-9.4-10,15.59,15.59,0,0,1,9.4,10m-.8,8.3a16,16,0,0,1-9.3-12.6,18.15,18.15,0,0,0,10.1,7.5,1,1,0,0,1,.7.9v.8a24.52,24.52,0,0,1-.2,2.7,1.1,1.1,0,0,1-1.2.8c0-.1,0-.1-.1-.1" transform="translate(-9 -6)"/><path class="cls-3" d="M27.9,36.1a18.47,18.47,0,0,0,1.5,7.4,12.44,12.44,0,0,0,1,2,16.1,16.1,0,0,0,2.1,3,.91.91,0,0,0,.7.3h.2a16.2,16.2,0,0,0,2.2-.1.56.56,0,0,0,.5-.6.52.52,0,0,0-.2-.4c-.6-.6-1.2-1.3-1.8-2a12,12,0,0,1-1.3-2.1,1,1,0,0,1,.5-1.3h0A19,19,0,0,0,44.9,24.9a21,21,0,0,0-.5-4.3v-.2a7.49,7.49,0,0,0-.5-1.6c-.1-.2-.1-.4-.2-.5a1,1,0,0,0-1.1-.6h0a2.92,2.92,0,0,0-.9.2,5,5,0,0,0-1.3.4A18.93,18.93,0,0,0,28.2,32.1a16.45,16.45,0,0,0-.4,3.1,2.48,2.48,0,0,1,.1.9m13.3-15a15.59,15.59,0,0,1-9.4,10,15.35,15.35,0,0,1,9.4-10M31,36.1v-.8a1.07,1.07,0,0,1,.7-.9,18.49,18.49,0,0,0,10.1-7.5,15.84,15.84,0,0,1-9.3,12.6,1,1,0,0,1-1.3-.6v-.1a12.29,12.29,0,0,1-.2-2.7" transform="translate(-9 -6)"/><rect class="cls-4" x="1" width="35.9" height="43"/></svg>